<svg id="visual" viewBox="0 0 1920 1080" width="1920" height="1080" xmlns="http://www.w3.org/2000/svg" xmlns:xlink="http://www.w3.org/1999/xlink" version="1.1"><path d="M0 239L175 239L175 260L349 260L349 282L524 282L524 185L698 185L698 131L873 131L873 314L1047 314L1047 98L1222 98L1222 141L1396 141L1396 217L1571 217L1571 141L1745 141L1745 131L1920 131L1920 249L1920 0L1920 0L1745 0L1745 0L1571 0L1571 0L1396 0L1396 0L1222 0L1222 0L1047 0L1047 0L873 0L873 0L698 0L698 0L524 0L524 0L349 0L349 0L175 0L175 0L0 0Z" fill="#20925b"></path><path d="M0 455L175 455L175 336L349 336L349 433L524 433L524 314L698 314L698 260L873 260L873 411L1047 411L1047 185L1222 185L1222 303L1396 303L1396 303L1571 303L1571 293L1745 293L1745 217L1920 217L1920 390L1920 247L1920 129L1745 129L1745 139L1571 139L1571 215L1396 215L1396 139L1222 139L1222 96L1047 96L1047 312L873 312L873 129L698 129L698 183L524 183L524 280L349 280L349 258L175 258L175 237L0 237Z" fill="#1da464"></path><path d="M0 735L175 735L175 649L349 649L349 692L524 692L524 552L698 552L698 563L873 563L873 606L1047 606L1047 638L1222 638L1222 584L1396 584L1396 476L1571 476L1571 509L1745 509L1745 692L1920 692L1920 595L1920 388L1920 215L1745 215L1745 291L1571 291L1571 301L1396 301L1396 301L1222 301L1222 183L1047 183L1047 409L873 409L873 258L698 258L698 312L524 312L524 431L349 431L349 334L175 334L175 453L0 453Z" fill="#17b66d"></path><path d="M0 811L175 811L175 800L349 800L349 833L524 833L524 638L698 638L698 627L873 627L873 703L1047 703L1047 789L1222 789L1222 703L1396 703L1396 617L1571 617L1571 692L1745 692L1745 843L1920 843L1920 714L1920 593L1920 690L1745 690L1745 507L1571 507L1571 474L1396 474L1396 582L1222 582L1222 636L1047 636L1047 604L873 604L873 561L698 561L698 550L524 550L524 690L349 690L349 647L175 647L175 733L0 733Z" fill="#0ec876"></path><path d="M0 1081L175 1081L175 1081L349 1081L349 1081L524 1081L524 1081L698 1081L698 1081L873 1081L873 1081L1047 1081L1047 1081L1222 1081L1222 1081L1396 1081L1396 1081L1571 1081L1571 1081L1745 1081L1745 1081L1920 1081L1920 1081L1920 712L1920 841L1745 841L1745 690L1571 690L1571 615L1396 615L1396 701L1222 701L1222 787L1047 787L1047 701L873 701L873 625L698 625L698 636L524 636L524 831L349 831L349 798L175 798L175 809L0 809Z" fill="#00db7e"></path></svg>