<svg id="visual" viewBox="0 0 1920 1080" width="1920" height="1080" xmlns="http://www.w3.org/2000/svg" xmlns:xlink="http://www.w3.org/1999/xlink" version="1.1"><path d="M0 163L29.2 150.3C58.3 137.7 116.7 112.3 174.8 110.5C233 108.7 291 130.3 349.2 146.7C407.3 163 465.7 174 523.8 175.8C582 177.7 640 170.3 698.2 170.3C756.3 170.3 814.7 177.7 872.8 181.3C931 185 989 185 1047.2 167C1105.3 149 1163.7 113 1221.8 104C1280 95 1338 113 1396.2 132.7C1454.3 152.3 1512.7 173.7 1570.8 175.3C1629 177 1687 159 1745.2 162.7C1803.3 166.3 1861.7 191.7 1890.8 204.3L1920 217L1920 0L1890.8 0C1861.7 0 1803.3 0 1745.2 0C1687 0 1629 0 1570.8 0C1512.7 0 1454.3 0 1396.2 0C1338 0 1280 0 1221.8 0C1163.7 0 1105.3 0 1047.2 0C989 0 931 0 872.8 0C814.7 0 756.3 0 698.2 0C640 0 582 0 523.8 0C465.7 0 407.3 0 349.2 0C291 0 233 0 174.8 0C116.7 0 58.3 0 29.2 0L0 0Z" fill="#474747"></path><path d="M0 347L29.2 330.7C58.3 314.3 116.7 281.7 174.8 308.7C233 335.7 291 422.3 349.2 436.8C407.3 451.3 465.7 393.7 523.8 372C582 350.3 640 364.7 698.2 388C756.3 411.3 814.7 443.7 872.8 465.3C931 487 989 498 1047.2 503.5C1105.3 509 1163.7 509 1221.8 473C1280 437 1338 365 1396.2 359.5C1454.3 354 1512.7 415 1570.8 429.3C1629 443.7 1687 411.3 1745.2 416.8C1803.3 422.3 1861.7 465.7 1890.8 487.3L1920 509L1920 215L1890.8 202.3C1861.7 189.7 1803.3 164.3 1745.2 160.7C1687 157 1629 175 1570.8 173.3C1512.7 171.7 1454.3 150.3 1396.2 130.7C1338 111 1280 93 1221.8 102C1163.7 111 1105.3 147 1047.2 165C989 183 931 183 872.8 179.3C814.7 175.7 756.3 168.3 698.2 168.3C640 168.3 582 175.7 523.8 173.8C465.7 172 407.3 161 349.2 144.7C291 128.3 233 106.7 174.8 108.5C116.7 110.3 58.3 135.7 29.2 148.3L0 161Z" fill="#353535"></path><path d="M0 487L29.2 474.3C58.3 461.7 116.7 436.3 174.8 461.5C233 486.7 291 562.3 349.2 573.2C407.3 584 465.7 530 523.8 508.5C582 487 640 498 698.2 512.5C756.3 527 814.7 545 872.8 561.2C931 577.3 989 591.7 1047.2 607.8C1105.3 624 1163.7 642 1221.8 606C1280 570 1338 480 1396.2 469.2C1454.3 458.3 1512.7 526.7 1570.8 544.7C1629 562.7 1687 530.3 1745.2 534C1803.3 537.7 1861.7 577.3 1890.8 597.2L1920 617L1920 507L1890.8 485.3C1861.7 463.7 1803.3 420.3 1745.2 414.8C1687 409.3 1629 441.7 1570.8 427.3C1512.7 413 1454.3 352 1396.2 357.5C1338 363 1280 435 1221.8 471C1163.7 507 1105.3 507 1047.2 501.5C989 496 931 485 872.8 463.3C814.7 441.7 756.3 409.3 698.2 386C640 362.7 582 348.3 523.8 370C465.7 391.7 407.3 449.3 349.2 434.8C291 420.3 233 333.7 174.8 306.7C116.7 279.7 58.3 312.3 29.2 328.7L0 345Z" fill="#242424"></path><path d="M0 617L29.2 620.5C58.3 624 116.7 631 174.8 677.7C233 724.3 291 810.7 349.2 817.8C407.3 825 465.7 753 523.8 720.7C582 688.3 640 695.7 698.2 724.5C756.3 753.3 814.7 803.7 872.8 832.5C931 861.3 989 868.7 1047.2 870.5C1105.3 872.3 1163.7 868.7 1221.8 827.2C1280 785.7 1338 706.3 1396.2 683C1454.3 659.7 1512.7 692.3 1570.8 688.8C1629 685.3 1687 645.7 1745.2 651C1803.3 656.3 1861.7 706.7 1890.8 731.8L1920 757L1920 615L1890.8 595.2C1861.7 575.3 1803.3 535.7 1745.2 532C1687 528.3 1629 560.7 1570.8 542.7C1512.7 524.7 1454.3 456.3 1396.2 467.2C1338 478 1280 568 1221.8 604C1163.7 640 1105.3 622 1047.2 605.8C989 589.7 931 575.3 872.8 559.2C814.7 543 756.3 525 698.2 510.5C640 496 582 485 523.8 506.5C465.7 528 407.3 582 349.2 571.2C291 560.3 233 484.7 174.8 459.5C116.7 434.3 58.3 459.7 29.2 472.3L0 485Z" fill="#202020"></path><path d="M0 1081L29.2 1081C58.3 1081 116.7 1081 174.8 1081C233 1081 291 1081 349.2 1081C407.3 1081 465.7 1081 523.8 1081C582 1081 640 1081 698.2 1081C756.3 1081 814.7 1081 872.8 1081C931 1081 989 1081 1047.2 1081C1105.3 1081 1163.7 1081 1221.8 1081C1280 1081 1338 1081 1396.2 1081C1454.3 1081 1512.7 1081 1570.8 1081C1629 1081 1687 1081 1745.2 1081C1803.3 1081 1861.7 1081 1890.8 1081L1920 1081L1920 755L1890.8 729.8C1861.7 704.7 1803.3 654.3 1745.2 649C1687 643.7 1629 683.3 1570.8 686.8C1512.7 690.3 1454.3 657.7 1396.2 681C1338 704.3 1280 783.7 1221.8 825.2C1163.7 866.7 1105.3 870.3 1047.2 868.5C989 866.7 931 859.3 872.8 830.5C814.7 801.7 756.3 751.3 698.2 722.5C640 693.7 582 686.3 523.8 718.7C465.7 751 407.3 823 349.2 815.8C291 808.7 233 722.3 174.8 675.7C116.7 629 58.3 622 29.2 618.5L0 615Z" fill="#1c1c1c"></path></svg>