<svg xmlns="http://www.w3.org/2000/svg" width="1024" height="1024" viewBox="0 0 1024 1024" version="1.1"><path d="M 494.625 9.554 C 484.767 11.513, 475.742 14.644, 466 19.486 C 454.582 25.161, 80.693 225.547, 75.548 228.749 C 55.488 241.234, 39.457 263.103, 32.850 287 C 30.500 295.500, 30.500 295.500, 30.500 512 C 30.500 728.500, 30.500 728.500, 32.820 737 C 39.085 759.947, 53.962 780.892, 72.877 793.392 C 78.860 797.347, 445.424 994.234, 466.222 1004.664 C 496.209 1019.703, 527.792 1019.703, 557.778 1004.664 C 579.788 993.625, 945.278 797.233, 951.304 793.207 C 970.387 780.458, 984.571 760.436, 991.124 737 C 993.500 728.500, 993.500 728.500, 993.500 512 C 993.500 295.500, 993.500 295.500, 991.206 287 C 984.883 263.566, 968.479 241.212, 948.469 228.760 C 943.918 225.928, 571.059 26.020, 558.772 19.825 C 537.847 9.274, 514.694 5.566, 494.625 9.554 M 495.500 30.468 C 492.200 31.187, 486.800 32.877, 483.500 34.222 C 479.060 36.032, 393.719 81.124, 392.262 82.430 C 392.131 82.547, 447.593 116.307, 515.512 157.452 C 583.430 198.597, 639 232.588, 639 232.986 C 639 234.239, 322.071 408.242, 320.753 407.713 C 320.064 407.436, 264.416 373.176, 197.091 331.579 C 74.683 255.949, 74.683 255.949, 72.219 258.225 C 64.598 265.262, 55.404 282.068, 52.648 294 C 51.823 297.575, 50.845 305.900, 50.475 312.500 C 49.803 324.500, 49.803 324.500, 173.398 394.442 C 296.994 464.383, 296.994 464.383, 297.247 620.818 C 297.500 777.252, 297.500 777.252, 404 836.161 C 462.575 868.562, 511.176 894.942, 512.002 894.785 C 512.828 894.628, 525.878 887.649, 541.002 879.276 C 556.126 870.902, 603.825 844.515, 647 820.636 C 725.500 777.221, 725.500 777.221, 725.753 620.789 C 726.006 464.358, 726.006 464.358, 849.753 394.224 C 973.500 324.089, 973.500 324.089, 973.249 312.795 C 972.941 298.907, 971.014 289.958, 966.054 279.374 C 959.225 264.801, 949.770 254.294, 935.741 245.689 C 924.852 239.010, 548.495 37.646, 541.063 34.522 C 537.523 33.035, 531.673 31.191, 528.063 30.426 C 519.934 28.703, 503.496 28.724, 495.500 30.468 M 501.500 365.784 C 339.500 454.500, 339.500 454.500, 339.246 587.750 C 339.069 681.045, 339.310 721, 340.052 721 C 340.635 721, 413.986 681.118, 503.056 632.374 C 665 543.748, 665 543.748, 665 410.374 C 665 337.018, 664.663 277.015, 664.250 277.034 C 663.837 277.053, 590.600 316.991, 501.500 365.784 M 528.001 682.048 C 444.677 726.017, 376.410 762.331, 376.296 762.746 C 376.182 763.161, 411.637 783.449, 455.085 807.832 C 534.081 852.164, 534.081 852.164, 559.791 838.627 C 573.931 831.181, 607.100 813.671, 633.500 799.714 C 681.500 774.338, 681.500 774.338, 681.756 688.169 C 681.959 619.540, 681.756 602.011, 680.756 602.052 C 680.065 602.081, 611.326 638.079, 528.001 682.048" stroke="none" fill="#fffcfc" fill-rule="evenodd"/><path d="" stroke="none" fill="#fcfcfc" fill-rule="evenodd"/></svg>